<?xml version="1.0" standalone="no"?>
<!DOCTYPE svg PUBLIC "-//W3C//DTD SVG 20010904//EN"
 "http://www.w3.org/TR/2001/REC-SVG-20010904/DTD/svg10.dtd">
<svg version="1.0" xmlns="http://www.w3.org/2000/svg"
 width="303.000000pt" height="303.000000pt" viewBox="0 0 303.000000 303.000000"
 preserveAspectRatio="xMidYMid meet">
<metadata>
Created by potrace 1.14, written by Peter Selinger 2001-2017
</metadata>
<g transform="translate(0.000000,303.000000) scale(0.100000,-0.100000)"
fill="#000000" stroke="none">
<path d="M1379 3027 c-2 -3 -33 -8 -69 -11 -221 -23 -478 -126 -685 -276 -191
-138 -357 -333 -463 -545 -38 -74 -98 -226 -107 -268 -2 -10 -6 -26 -9 -35 -3
-9 -8 -33 -11 -52 -3 -19 -11 -62 -17 -95 -14 -69 -17 -339 -5 -433 9 -74 58
-268 83 -333 73 -183 202 -383 338 -520 100 -102 124 -122 246 -204 195 -131
422 -216 650 -243 69 -8 321 -8 375 1 102 16 107 17 185 36 67 17 71 18 130
39 363 127 678 407 851 757 63 125 119 295 134 399 2 17 8 56 12 86 10 68 10
294 1 375 -30 255 -142 525 -306 739 -90 117 -243 258 -357 331 -33 21 -71 45
-85 55 -74 50 -345 154 -434 166 -23 3 -48 8 -56 11 -8 3 -26 7 -40 9 -46 5
-356 15 -361 11z m225 -208 c82 -20 132 -47 195 -104 89 -83 134 -188 134
-310 -2 -161 -99 -308 -253 -378 -117 -53 -277 -42 -384 27 -182 117 -249 338
-161 533 26 58 99 141 153 176 89 56 220 79 316 56z m-809 -635 c130 -45 242
-169 271 -299 42 -196 -53 -390 -232 -476 -56 -26 -82 -32 -149 -35 -128 -5
-225 29 -312 109 -80 74 -120 158 -129 277 -23 299 267 522 551 424z m1717 -3
c240 -84 348 -369 226 -591 -35 -63 -111 -141 -166 -169 -120 -61 -263 -65
-377 -10 -227 109 -308 376 -181 594 51 87 178 178 269 192 18 3 33 6 35 8 10
10 146 -7 194 -24z m-900 -428 c215 -86 207 -401 -12 -478 -166 -59 -339 62
-340 237 0 118 70 215 180 249 44 13 128 9 172 -8z m-532 -564 c19 -5 43 -12
53 -14 35 -8 104 -54 149 -100 178 -180 159 -465 -42 -624 -156 -123 -392
-113 -538 23 -141 131 -175 356 -78 520 76 128 209 204 361 205 33 1 76 -4 95
-10z m1078 -4 c195 -57 314 -229 299 -431 -6 -87 -9 -100 -42 -164 -69 -137
-201 -220 -355 -225 -168 -5 -319 84 -390 229 -41 86 -54 171 -38 266 40 235
294 392 526 325z"/>
</g>
</svg>
