<svg width="238" height="65" viewBox="0 0 238 65" fill="none" xmlns="http://www.w3.org/2000/svg">
<path d="M0 0H238V65H0V0Z" fill="#FFF3B0"/>
<path d="M40.1311 9.91525C40.1311 6.56878 42.8762 3.85593 46.2623 3.85593H195.639C199.025 3.85593 201.77 6.56878 201.77 9.91525V55.6356C201.77 58.9821 199.025 61.6949 195.639 61.6949H46.2623C42.8762 61.6949 40.1311 58.9821 40.1311 55.6356V9.91525Z" fill="#335C67"/>
<path d="M8.91803 14.322C8.91803 13.1051 9.91622 12.1186 11.1475 12.1186H26.1967C27.428 12.1186 28.4262 13.1051 28.4262 14.322V22.5847C28.4262 23.8016 27.428 24.7881 26.1967 24.7881H11.1475C9.91622 24.7881 8.91803 23.8016 8.91803 22.5847V14.322Z" fill="#335C67"/>
<path d="M8.91803 42.9661C8.91803 41.7492 9.91622 40.7627 11.1475 40.7627H26.1967C27.428 40.7627 28.4262 41.7492 28.4262 42.9661V51.2288C28.4262 52.4457 27.428 53.4322 26.1967 53.4322H11.1475C9.91622 53.4322 8.91803 52.4457 8.91803 51.2288V42.9661Z" fill="#335C67"/>
<path d="M210.689 14.322C210.689 13.1051 211.687 12.1186 212.918 12.1186H227.967C229.199 12.1186 230.197 13.1051 230.197 14.322V22.5847C230.197 23.8016 229.199 24.7881 227.967 24.7881H212.918C211.687 24.7881 210.689 23.8016 210.689 22.5847V14.322Z" fill="#335C67"/>
<path d="M210.689 42.9661C210.689 41.7492 211.687 40.7627 212.918 40.7627H227.967C229.199 40.7627 230.197 41.7492 230.197 42.9661V51.2288C230.197 52.4457 229.199 53.4322 227.967 53.4322H212.918C211.687 53.4322 210.689 52.4457 210.689 51.2288V42.9661Z" fill="#335C67"/>
<path d="M41.2459 9.36441C41.2459 6.93061 43.2423 4.95763 45.7049 4.95763H196.197C198.659 4.95763 200.656 6.93061 200.656 9.36441V56.1864C200.656 58.6202 198.659 60.5932 196.197 60.5932H45.7049C43.2423 60.5932 41.2459 58.6202 41.2459 56.1864V9.36441Z" fill="#FFF3B0"/>
</svg>
