<svg width="427" height="118" viewBox="0 0 427 118" fill="none" xmlns="http://www.w3.org/2000/svg">
<path d="M0 0H427V118H0V0Z" fill="#FFF3B0"/>
<path d="M72 18C72 11.9249 76.9249 7 83 7H351C357.075 7 362 11.9249 362 18V101C362 107.075 357.075 112 351 112H83C76.9249 112 72 107.075 72 101V18Z" fill="#335C67"/>
<path d="M16 26C16 23.7909 17.7909 22 20 22H47C49.2091 22 51 23.7909 51 26V41C51 43.2091 49.2091 45 47 45H20C17.7909 45 16 43.2091 16 41V26Z" fill="#335C67"/>
<path d="M16 78C16 75.7909 17.7909 74 20 74H47C49.2091 74 51 75.7909 51 78V93C51 95.2091 49.2091 97 47 97H20C17.7909 97 16 95.2091 16 93V78Z" fill="#335C67"/>
<path d="M378 26C378 23.7909 379.791 22 382 22H409C411.209 22 413 23.7909 413 26V41C413 43.2091 411.209 45 409 45H382C379.791 45 378 43.2091 378 41V26Z" fill="#335C67"/>
<path d="M378 78C378 75.7909 379.791 74 382 74H409C411.209 74 413 75.7909 413 78V93C413 95.2091 411.209 97 409 97H382C379.791 97 378 95.2091 378 93V78Z" fill="#335C67"/>
</svg>
