<svg width="238" height="127" viewBox="0 0 238 127" fill="none" xmlns="http://www.w3.org/2000/svg">
<path d="M0 0H238V127H0V0Z" fill="#335C67"/>
<path fill-rule="evenodd" clip-rule="evenodd" d="M238 0H0V127H238V0ZM45.7049 7.9375C42.3188 7.9375 39.5738 10.5436 39.5738 13.7583V113.242C39.5738 116.456 42.3188 119.062 45.7049 119.062H195.639C199.025 119.062 201.77 116.456 201.77 113.242V13.7583C201.77 10.5436 199.025 7.9375 195.639 7.9375H45.7049ZM6.13115 16.9333C6.13115 15.7643 7.12933 14.8167 8.36066 14.8167H23.9672C25.1985 14.8167 26.1967 15.7643 26.1967 16.9333V25.4C26.1967 26.569 25.1985 27.5167 23.9672 27.5167H8.36066C7.12933 27.5167 6.13115 26.569 6.13115 25.4V16.9333ZM8.36066 72.4958C7.12933 72.4958 6.13115 73.4435 6.13115 74.6125V83.0792C6.13115 84.2482 7.12933 85.1958 8.36066 85.1958H23.9672C25.1985 85.1958 26.1967 84.2482 26.1967 83.0792V74.6125C26.1967 73.4435 25.1985 72.4958 23.9672 72.4958H8.36066ZM6.13115 103.717C6.13115 102.548 7.12933 101.6 8.36066 101.6H23.9672C25.1985 101.6 26.1967 102.548 26.1967 103.717V112.183C26.1967 113.352 25.1985 114.3 23.9672 114.3H8.36066C7.12933 114.3 6.13115 113.352 6.13115 112.183V103.717ZM8.36066 43.9208C7.12933 43.9208 6.13115 44.8685 6.13115 46.0375V54.5042C6.13115 55.6732 7.12933 56.6208 8.36066 56.6208H23.9672C25.1985 56.6208 26.1967 55.6732 26.1967 54.5042V46.0375C26.1967 44.8685 25.1985 43.9208 23.9672 43.9208H8.36066ZM211.246 16.9333C211.246 15.7643 212.244 14.8167 213.475 14.8167H229.082C230.313 14.8167 231.311 15.7643 231.311 16.9333V25.4C231.311 26.569 230.313 27.5167 229.082 27.5167H213.475C212.244 27.5167 211.246 26.569 211.246 25.4V16.9333ZM213.475 72.4958C212.244 72.4958 211.246 73.4435 211.246 74.6125V83.0792C211.246 84.2482 212.244 85.1958 213.475 85.1958H229.082C230.313 85.1958 231.311 84.2482 231.311 83.0792V74.6125C231.311 73.4435 230.313 72.4958 229.082 72.4958H213.475ZM211.246 103.717C211.246 102.548 212.244 101.6 213.475 101.6H229.082C230.313 101.6 231.311 102.548 231.311 103.717V112.183C231.311 113.352 230.313 114.3 229.082 114.3H213.475C212.244 114.3 211.246 113.352 211.246 112.183V103.717ZM213.475 43.9208C212.244 43.9208 211.246 44.8685 211.246 46.0375V54.5042C211.246 55.6732 212.244 56.6208 213.475 56.6208H229.082C230.313 56.6208 231.311 55.6732 231.311 54.5042V46.0375C231.311 44.8685 230.313 43.9208 229.082 43.9208H213.475Z" fill="#FFF3B0"/>
</svg>
