<svg width="427" height="240" viewBox="0 0 427 240" fill="none" xmlns="http://www.w3.org/2000/svg">
<path d="M0 0H427V240H0V0Z" fill="#335C67"/>
<path d="M83 18C78.0294 18 74 22.0294 74 27V213C74 217.971 78.0294 222 83 222H350C354.971 222 359 217.971 359 213V27C359 22.0294 354.971 18 350 18H83Z" fill="#FFF3B0"/>
<path fill-rule="evenodd" clip-rule="evenodd" d="M0 0H427V240H0V0ZM71 26C71 19.9249 75.9249 15 82 15H351C357.075 15 362 19.9249 362 26V214C362 220.075 357.075 225 351 225H82C75.9249 225 71 220.075 71 214V26ZM15 28C12.7908 28 11 29.7908 11 32V48C11 50.2092 12.7908 52 15 52H43C45.2092 52 47 50.2092 47 48V32C47 29.7908 45.2092 28 43 28H15ZM11 141C11 138.791 12.7908 137 15 137H43C45.2092 137 47 138.791 47 141V157C47 159.209 45.2092 161 43 161H15C12.7908 161 11 159.209 11 157V141ZM15 192C12.7908 192 11 193.791 11 196V212C11 214.209 12.7908 216 15 216H43C45.2092 216 47 214.209 47 212V196C47 193.791 45.2092 192 43 192H15ZM11 87C11 84.7908 12.7908 83 15 83H43C45.2092 83 47 84.7908 47 87V103C47 105.209 45.2092 107 43 107H15C12.7908 107 11 105.209 11 103V87ZM383 28C380.791 28 379 29.7908 379 32V48C379 50.2092 380.791 52 383 52H411C413.209 52 415 50.2092 415 48V32C415 29.7908 413.209 28 411 28H383ZM379 141C379 138.791 380.791 137 383 137H411C413.209 137 415 138.791 415 141V157C415 159.209 413.209 161 411 161H383C380.791 161 379 159.209 379 157V141ZM383 192C380.791 192 379 193.791 379 196V212C379 214.209 380.791 216 383 216H411C413.209 216 415 214.209 415 212V196C415 193.791 413.209 192 411 192H383ZM379 87C379 84.7908 380.791 83 383 83H411C413.209 83 415 84.7908 415 87V103C415 105.209 413.209 107 411 107H383C380.791 107 379 105.209 379 103V87Z" fill="#FFF3B0"/>
</svg>
