<svg width="427" height="240" viewBox="0 0 427 240" fill="none" xmlns="http://www.w3.org/2000/svg">
<path d="M0 0H427V240H0V0Z" fill="#335C67"/>
<path fill-rule="evenodd" clip-rule="evenodd" d="M427 0H0V240H427V0ZM82 15C75.9249 15 71 19.9249 71 26V214C71 220.075 75.9249 225 82 225H351C357.075 225 362 220.075 362 214V26C362 19.9249 357.075 15 351 15H82ZM11 32C11 29.7909 12.7909 28 15 28H43C45.2091 28 47 29.7909 47 32V48C47 50.2091 45.2091 52 43 52H15C12.7909 52 11 50.2091 11 48V32ZM15 137C12.7909 137 11 138.791 11 141V157C11 159.209 12.7909 161 15 161H43C45.2091 161 47 159.209 47 157V141C47 138.791 45.2091 137 43 137H15ZM11 196C11 193.791 12.7909 192 15 192H43C45.2091 192 47 193.791 47 196V212C47 214.209 45.2091 216 43 216H15C12.7909 216 11 214.209 11 212V196ZM15 83C12.7909 83 11 84.7909 11 87V103C11 105.209 12.7909 107 15 107H43C45.2091 107 47 105.209 47 103V87C47 84.7909 45.2091 83 43 83H15ZM379 32C379 29.7909 380.791 28 383 28H411C413.209 28 415 29.7909 415 32V48C415 50.2091 413.209 52 411 52H383C380.791 52 379 50.2091 379 48V32ZM383 137C380.791 137 379 138.791 379 141V157C379 159.209 380.791 161 383 161H411C413.209 161 415 159.209 415 157V141C415 138.791 413.209 137 411 137H383ZM379 196C379 193.791 380.791 192 383 192H411C413.209 192 415 193.791 415 196V212C415 214.209 413.209 216 411 216H383C380.791 216 379 214.209 379 212V196ZM383 83C380.791 83 379 84.7909 379 87V103C379 105.209 380.791 107 383 107H411C413.209 107 415 105.209 415 103V87C415 84.7909 413.209 83 411 83H383Z" fill="#FFF3B0"/>
</svg>
