<svg width="149" height="161" viewBox="0 0 149 161" fill="none" xmlns="http://www.w3.org/2000/svg">
<path fill-rule="evenodd" clip-rule="evenodd" d="M59.6614 117.51C92.6115 117.51 119.323 91.2049 119.323 58.7552C119.323 26.3056 92.6115 0 59.6614 0C26.7113 0 0 26.3056 0 58.7552C0 91.2049 26.7113 117.51 59.6614 117.51ZM59.6614 103.846C84.9487 103.846 105.448 83.6584 105.448 58.7552C105.448 33.852 84.9487 13.664 59.6614 13.664C34.3741 13.664 13.8747 33.852 13.8747 58.7552C13.8747 83.6584 34.3741 103.846 59.6614 103.846Z" fill="#FFF3B0"/>
<path d="M86.5352 107.621C84.72 105.54 84.9575 102.407 87.0658 100.623L95.5903 93.4118C97.6985 91.6283 100.879 91.8694 102.694 93.9504L147.713 145.562C149.528 147.643 149.291 150.776 147.183 152.559L138.658 159.771C136.55 161.554 133.369 161.313 131.554 159.232L86.5352 107.621Z" fill="#FFF3B0"/>
</svg>
