<svg width="427" height="118" viewBox="0 0 427 118" fill="none" xmlns="http://www.w3.org/2000/svg">
<path fill-rule="evenodd" clip-rule="evenodd" d="M427 0H0V118H427V0ZM82 11C76.4772 11 72 15.4772 72 21V97C72 102.523 76.4772 107 82 107H352C357.523 107 362 102.523 362 97V21C362 15.4772 357.523 11 352 11H82ZM17 24C17 21.7909 18.7908 20 21 20H48C50.2092 20 52 21.7909 52 24V39C52 41.2091 50.2092 43 48 43H21C18.7908 43 17 41.2091 17 39V24ZM21 71C18.7908 71 17 72.7909 17 75V90C17 92.2091 18.7908 94 21 94H48C50.2092 94 52 92.2091 52 90V75C52 72.7909 50.2092 71 48 71H21ZM378 24C378 21.7909 379.791 20 382 20H409C411.209 20 413 21.7909 413 24V39C413 41.2091 411.209 43 409 43H382C379.791 43 378 41.2091 378 39V24ZM382 71C379.791 71 378 72.7909 378 75V90C378 92.2091 379.791 94 382 94H409C411.209 94 413 92.2091 413 90V75C413 72.7909 411.209 71 409 71H382Z" fill="#FFF3B0"/>
</svg>
