<svg width="238" height="65" viewBox="0 0 238 65" fill="none" xmlns="http://www.w3.org/2000/svg">
<path fill-rule="evenodd" clip-rule="evenodd" d="M238 0H0V65H238V0ZM45.7049 6.05932C42.6266 6.05932 40.1311 8.52555 40.1311 11.5678V53.4322C40.1311 56.4745 42.6266 58.9407 45.7049 58.9407H196.197C199.275 58.9407 201.77 56.4744 201.77 53.4322V11.5678C201.77 8.52555 199.275 6.05932 196.197 6.05932H45.7049ZM9.47541 13.2203C9.47541 12.0034 10.4736 11.0169 11.7049 11.0169H26.7541C27.9854 11.0169 28.9836 12.0034 28.9836 13.2203V21.4831C28.9836 22.6999 27.9854 23.6864 26.7541 23.6864H11.7049C10.4736 23.6864 9.47541 22.6999 9.47541 21.4831V13.2203ZM11.7049 39.1102C10.4736 39.1102 9.47541 40.0967 9.47541 41.3136V49.5763C9.47541 50.7932 10.4736 51.7797 11.7049 51.7797H26.7541C27.9854 51.7797 28.9836 50.7932 28.9836 49.5763V41.3136C28.9836 40.0967 27.9854 39.1102 26.7541 39.1102H11.7049ZM210.689 13.2203C210.689 12.0034 211.687 11.0169 212.918 11.0169H227.967C229.199 11.0169 230.197 12.0034 230.197 13.2203V21.4831C230.197 22.6999 229.199 23.6864 227.967 23.6864H212.918C211.687 23.6864 210.689 22.6999 210.689 21.4831V13.2203ZM212.918 39.1102C211.687 39.1102 210.689 40.0967 210.689 41.3136V49.5763C210.689 50.7932 211.687 51.7797 212.918 51.7797H227.967C229.199 51.7797 230.197 50.7932 230.197 49.5763V41.3136C230.197 40.0967 229.199 39.1102 227.967 39.1102H212.918Z" fill="#FFF3B0"/>
<path d="M41.2459 12.1186C41.2459 9.38062 43.4918 7.16102 46.2623 7.16102H195.639C198.41 7.16102 200.656 9.38062 200.656 12.1186V52.8814C200.656 55.6194 198.41 57.839 195.639 57.839H46.2623C43.4918 57.839 41.2459 55.6194 41.2459 52.8814V12.1186Z" fill="#FFF3B0"/>
</svg>
