<svg width="241" height="53" viewBox="0 0 241 53" fill="none" xmlns="http://www.w3.org/2000/svg">
<path fill-rule="evenodd" clip-rule="evenodd" d="M0 8C0 3.58173 3.58173 0 8 0H233C237.418 0 241 3.58173 241 8V45C241 49.4183 237.418 53 233 53H8C3.58173 53 0 49.4183 0 45V8ZM7 10C7 8.89542 7.89542 8 9 8H22C23.1046 8 24 8.89542 24 10V16C24 17.1046 23.1046 18 22 18H9C7.89542 18 7 17.1046 7 16V10ZM9 35C7.89542 35 7 35.8954 7 37V43C7 44.1046 7.89542 45 9 45H22C23.1046 45 24 44.1046 24 43V37C24 35.8954 23.1046 35 22 35H9ZM216 10C216 8.89542 216.895 8 218 8H231C232.105 8 233 8.89542 233 10V16C233 17.1046 232.105 18 231 18H218C216.895 18 216 17.1046 216 16V10ZM218 35C216.895 35 216 35.8954 216 37V43C216 44.1046 216.895 45 218 45H231C232.105 45 233 44.1046 233 43V37C233 35.8954 232.105 35 231 35H218Z" fill="#FFF3B0"/>
</svg>
