<svg width="238" height="65" viewBox="0 0 238 65" fill="none" xmlns="http://www.w3.org/2000/svg">
<path fill-rule="evenodd" clip-rule="evenodd" d="M238 0H0V65H238V0ZM50.1311 6.05932C44.6083 6.05932 40.1311 10.5365 40.1311 16.0593V48.9407C40.1311 54.4635 44.6083 58.9407 50.1312 58.9407H191.77C197.293 58.9407 201.77 54.4635 201.77 48.9407V16.0593C201.77 10.5365 197.293 6.05932 191.77 6.05932H50.1311ZM9.47541 15.0169C9.47541 12.8078 11.2663 11.0169 13.4754 11.0169H24.9836C27.1927 11.0169 28.9836 12.8078 28.9836 15.0169V19.6864C28.9836 21.8956 27.1927 23.6864 24.9836 23.6864H13.4754C11.2663 23.6864 9.47541 21.8956 9.47541 19.6864V15.0169ZM13.4754 39.1102C11.2663 39.1102 9.47541 40.901 9.47541 43.1102V47.7797C9.47541 49.9888 11.2663 51.7797 13.4754 51.7797H24.9836C27.1927 51.7797 28.9836 49.9888 28.9836 47.7797V43.1102C28.9836 40.901 27.1927 39.1102 24.9836 39.1102H13.4754ZM210.689 15.0169C210.689 12.8078 212.479 11.0169 214.689 11.0169H226.197C228.406 11.0169 230.197 12.8078 230.197 15.0169V19.6864C230.197 21.8956 228.406 23.6864 226.197 23.6864H214.689C212.479 23.6864 210.689 21.8956 210.689 19.6864V15.0169ZM214.689 39.1102C212.479 39.1102 210.689 40.901 210.689 43.1102V47.7797C210.689 49.9888 212.479 51.7797 214.689 51.7797H226.197C228.406 51.7797 230.197 49.9888 230.197 47.7797V43.1102C230.197 40.901 228.406 39.1102 226.197 39.1102H214.689Z" fill="#FFF3B0"/>
</svg>
